<?xml version="1.0" standalone="no"?>
<!DOCTYPE svg PUBLIC "-//W3C//DTD SVG 1.1//EN" "http://www.w3.org/Graphics/SVG/1.1/DTD/svg11.dtd" >
<svg xmlns="http://www.w3.org/2000/svg">
<metadata>Generated by IcoMoon</metadata>
<defs>
<font id="icomoon" horiz-adv-x="1024">
<font-face units-per-em="1024" ascent="960" descent="-64" />
<missing-glyph horiz-adv-x="1024" />
<glyph unicode="&#x20;" horiz-adv-x="512" d="" />
<glyph unicode="&#xe900;" glyph-name="login" d="M475.208 279.108l67.783-68.146 218.937 218.937-67.783 68.146-151.153 151.153-67.783-68.146 103.306-102.944h-578.515v-96.057h578.515l-103.306-102.944zM927.943 942.080h-735.83v-320.068h127.955v192.113h575.977v-768.091h-575.977v192.113h-127.955v-320.068h831.887v1024h-96.057z" />
<glyph unicode="&#xe901;" glyph-name="search" d="M990.547 94.901s-137.286 119.908-169.87 152.058c-48.224 47.79-67.34 70.815-50.396 109.482 26.331 52.333 41.748 114.052 41.748 179.371 0 224.344-181.867 406.211-406.211 406.211s-406.211-181.867-406.211-406.211c0-224.344 181.867-406.211 406.211-406.211 64.986 0 126.407 15.26 180.876 42.392l-2.358-1.063c39.101 16.944 62.126-2.172 109.916-50.396 33.018-32.584 152.927-169.87 152.927-169.87 62.126-62.126 109.916-23.895 138.59 4.779s66.905 77.332 4.779 139.459zM572.171 369.909c-42.535-42.545-101.303-68.86-166.216-68.86-129.808 0-235.038 105.23-235.038 235.038s105.23 235.038 235.038 235.038c64.914 0 123.681-26.315 166.216-68.86v0c42.522-42.532 68.822-101.283 68.822-166.177s-26.3-123.646-68.822-166.178v0z" />
<glyph unicode="&#xe902;" glyph-name="book" horiz-adv-x="986" d="M907.422 331.506v169.466h-18.68c-74.529-0.288-146.266-11.786-213.759-32.891l5.133 1.383c-6.977 13.953-14.629 28.357-22.505 41.86 3.151 2.701 6.302 5.851 9.227 8.777 45.044 44.84 72.918 106.895 72.918 175.46 0 136.724-110.837 247.56-247.56 247.56s-247.56-110.837-247.56-247.56c0-68.565 27.874-130.62 72.909-175.451l0.009-0.009c2.926-2.926 6.076-6.076 9.227-8.777-7.427-13.503-14.854-27.907-22.505-41.86-61.929 19.589-133.182 31.076-207.054 31.507l-0.221 0.001h-18.68v-169.466c-55.814-1.125-78.319-47.712-78.319-105.326s22.505-104.2 78.319-105.326v-135.033h18.004c5.626 0 57.164-2.476 127.156-11.703 88.378-11.126 168.256-30.224 244.534-56.976l-8.226 2.513h64.816c70.402 24.796 152.879 44.012 238.142 54.147l5.592 0.541c35.559 4.501 65.716 7.202 87.321 8.777 10.578 0 19.13 1.35 24.981 1.575h26.782v135.033c56.714 1.125 78.319 47.937 78.319 105.326s-21.605 105.326-78.319 106.451zM80.345 158.439h-2.025c-12.828 0-40.735 3.601-40.735 67.516s27.907 67.516 40.735 67.516h2.025c0.219 0.003 0.477 0.004 0.736 0.004 37.288 0 67.516-30.228 67.516-67.516 0-24.424-12.969-45.819-32.396-57.675l-0.297-0.168c-9.815-6.082-21.72-9.686-34.467-9.686-0.384 0-0.767 0.003-1.149 0.010l0.057-0.001zM442.008 369.54v-405.099c-62.514 19.874-136.933 36.205-213.419 45.917l-6.46 0.669c-47.036 6.076-85.071 9.002-106.226 10.127v106.001c41.014 15.026 69.753 53.725 69.753 99.137s-28.739 84.111-69.022 98.902l-0.731 0.235v137.734c87.38-2.846 169.658-21.436 245.156-53.008l-4.572 1.696c29.473-11.986 53.823-23.911 77.266-37.246l-3.223 1.688 11.478-6.752zM517.626-43.436h-51.087v400.373h51.087zM492.87 484.768c-0.125 0-0.272 0-0.419 0-56.965 0-108.615 22.758-146.355 59.677l0.038-0.037-2.025 1.8c-20.058 20.278-36.146 44.53-46.97 71.463l-0.516 1.455c38.091 7.694 71.93 20.878 102.602 38.877l-1.553-0.842c46.087 27.383 85.594 59.869 119.561 97.457l0.393 0.442c12.378 13.278 22.505 25.206 29.482 34.433 11.928-15.079 29.707-37.359 49.962-60.54 18.734-21.493 37.843-41.101 57.981-59.606l0.533-0.484c8.835-7.744 18.528-15.148 28.702-21.881l1.005-0.625 10.127-6.076c-10.195-36.63-28.946-68.058-54.017-93.176l-2.022-2.022c-37.672-37.154-89.39-60.15-146.479-60.315h-0.032zM869.837 21.83c-21.155 0-59.189-4.051-106.226-10.127-82.945-10.381-157.365-26.712-229.127-49.069l9.249 2.483v405.099c24.309 14.653 52.749 28.782 82.343 40.643l4.078 1.443c70.538 29.633 152.358 48.061 238.134 50.834l1.1 0.028v-137.734c-41.014-15.026-69.753-53.725-69.753-99.137s28.739-84.111 69.022-98.902l0.731-0.235zM907.422 158.439h-2.025c-0.112-0.001-0.244-0.001-0.377-0.001-13.042 0-25.203 3.774-35.45 10.288l0.269-0.16c-19.724 12.024-32.693 33.419-32.693 57.843 0 37.288 30.228 67.516 67.516 67.516 0.259 0 0.517-0.001 0.775-0.004h1.986c12.828 0 40.735-3.601 40.735-67.516s-27.907-67.742-40.735-67.967zM411.625 645.007c-13.797 0-24.981-11.184-24.981-24.981s11.184-24.981 24.981-24.981c13.797 0 24.981 11.184 24.981 24.981v0c0 13.797-11.184 24.981-24.981 24.981v0zM574.115 645.007c-13.797 0-24.981-11.184-24.981-24.981s11.184-24.981 24.981-24.981c13.797 0 24.981 11.184 24.981 24.981v0c0 13.797-11.184 24.981-24.981 24.981v0z" />
<glyph unicode="&#xe903;" glyph-name="mail" horiz-adv-x="1305" d="M1301.312 796.291c-6.091 30.42-19.153 57.104-37.472 79.286l0.242-0.302c-3.827 4.871-8.003 9.394-12.178 13.918-32.858 32.604-78.084 52.785-128.024 52.887h-942.949c-49.96-0.103-95.186-20.283-128.055-52.899l0.012 0.012c-4.175-4.523-8.351-9.047-12.178-13.918-18.077-21.88-31.139-48.563-37.038-77.84l-0.192-1.143c-2.213-10.272-3.481-22.072-3.481-34.168 0-0.22 0-0.44 0.001-0.66v0.034-661.094c-0.005-0.51-0.008-1.113-0.008-1.717 0-25.936 5.51-50.584 15.423-72.839l-0.453 1.14c9.518-21.737 22.293-40.308 37.933-56.027l-0.008 0.008c4.175-4.175 8.351-7.655 12.526-11.482 31.123-25.771 71.455-41.405 115.439-41.405 0.027 0 0.055 0 0.082 0h942.925c0.085 0 0.185 0 0.285 0 43.973 0 84.261 15.778 115.512 41.981l-0.279-0.228c4.175 3.479 8.351 6.959 12.526 11.134 15.633 15.711 28.408 34.282 37.47 54.858l0.456 1.161c9.454 20.926 14.963 45.37 14.963 71.1 0 0.203 0 0.406-0.001 0.608v-0.031 662.486c0.002 0.287 0.003 0.627 0.003 0.967 0 12.099-1.268 23.902-3.679 35.283l0.196-1.107zM118.301 823.431c15.692 16.108 37.595 26.1 61.831 26.1 0.281 0 0.562-0.001 0.842-0.004h942.886c0.135 0.001 0.294 0.001 0.453 0.001 24.235 0 46.136-9.991 61.81-26.078l0.018-0.019c2.908-2.73 5.534-5.688 7.877-8.868l0.125-0.178-494.081-430.755c-12.715-10.993-29.41-17.69-47.668-17.69s-34.953 6.697-47.761 17.769l0.093-0.078-494.081 430.755c2.468 3.358 5.095 6.316 7.968 9.015l0.034 0.032zM92.553 99.011v619.689l357.687-313.15-357.339-313.15c-0.396 1.183-0.624 2.544-0.624 3.959 0 0.939 0.101 1.855 0.291 2.736l-0.015-0.085zM1123.86 10.633h-942.929c-0.082 0-0.18 0-0.278 0-16.017 0-31.038 4.261-43.993 11.71l0.429-0.228 377.172 328.459 34.794-30.619c27.373-24 63.472-38.641 102.992-38.641s75.619 14.641 103.171 38.795l-0.179-0.154 34.794 30.619 377.172-328.807c-12.374-7.006-27.177-11.134-42.943-11.134-0.071 0-0.142 0-0.213 0h0.011zM1212.238 99.011c0.091-0.575 0.143-1.238 0.143-1.914s-0.052-1.339-0.152-1.986l0.009 0.072-357.687 311.41 357.687 313.15z" />
<glyph unicode="&#xe904;" glyph-name="profile" horiz-adv-x="686" d="M346.925 941.935c146.457-2.301 263.318-122.892 261.017-269.349s-122.892-263.318-269.349-261.017c-146.457 2.301-263.318 122.892-261.017 269.349s122.892 263.318 269.349 261.017zM682.496 155.904c-11.776 70.912-71.936 168.96-115.2 214.784-5.793 4.903-13.35 7.884-21.602 7.884-6.395 0-12.372-1.79-17.457-4.896l0.147 0.084c-52.715-33.261-116.853-52.998-185.6-52.998s-132.885 19.737-187.055 53.853l1.455-0.855c-4.975 3.008-10.984 4.788-17.41 4.788-8.299 0-15.905-2.969-21.813-7.903l0.054 0.044c-43.008-45.824-102.4-143.872-114.944-214.784-28.672-174.592 157.44-237.824 339.712-237.824s368.896 63.232 339.712 237.824z" />
<glyph unicode="&#xe905;" glyph-name="speaker" horiz-adv-x="1470" d="M697.458 942.080c-46.445-1.568-87.994-21.307-118-52.292l-0.044-0.046-338.204-215.040h-92.729c-13.325-0.055-26.026-2.662-37.662-7.355l0.684 0.244c-20.216-8.765-37.12-21.837-50.148-38.142l-0.199-0.258c-19.983-24.019-35.575-52.488-45.062-83.619l-0.449-1.715c-9.935-33.286-15.653-71.533-15.653-111.115 0-0.936 0.003-1.872 0.010-2.806l-0.001 0.144c-0.004-0.678-0.007-1.479-0.007-2.281 0-30.243 3.423-59.686 9.902-87.964l-0.508 2.636c8.596-40.401 25.14-75.963 48.007-106.518l-0.505 0.705c10.957-14.302 24.052-26.31 38.929-35.763l0.609-0.361c15.287-9.245 33.704-14.816 53.403-15.075l0.073-0.001h91.307l338.204-215.040c30.050-31.031 71.6-50.77 117.759-52.33l0.286-0.008c147.911 0 267.662 229.262 267.662 512s-119.751 512-267.662 512zM227.556 272.213h-79.076c-0.812-0.152-1.747-0.24-2.702-0.24s-1.89 0.087-2.797 0.254l0.094-0.014c-6.504 3.017-11.937 7.357-16.142 12.706l-0.071 0.094c-12.756 16.038-22.552 35.059-28.19 55.792l-0.254 1.096c-7.416 25.383-11.682 54.542-11.682 84.697 0 1.224 0.007 2.446 0.021 3.667l-0.002-0.186c-0.001 0.335-0.002 0.73-0.002 1.126 0 24.080 2.591 47.556 7.509 70.162l-0.396-2.169c5.225 27.038 15.76 50.966 30.527 71.666l-0.376-0.554c4.234 5.837 9.326 10.747 15.146 14.656l0.214 0.135c2.535 1.78 5.686 2.844 9.084 2.844 0.006 0 0.013 0 0.019 0h79.075c-4.641-9.868-9.188-21.853-12.878-34.208l-0.491-1.916c-11.586-36.387-18.335-78.248-18.489-121.664v-0.078c-0.004-0.701-0.007-1.531-0.007-2.361 0-56.193 11.723-109.648 32.856-158.052l-0.991 2.547zM479.004 137.956l-192 121.458c-12.137 18.043-21.874 38.963-28.086 61.349l-0.358 1.514c-9.897 32.269-15.612 69.363-15.644 107.788v0.017c-0.040 1.94-0.062 4.227-0.062 6.52 0 53.021 12.089 103.218 33.661 147.985l-0.887-2.043c3.698 6.542 7.396 12.8 11.093 18.489l190.862 121.173c-30.49-84.37-48.117-181.738-48.117-283.223 0-3.13 0.017-6.255 0.050-9.377l-0.004 0.476c-0.022-2.311-0.035-5.042-0.035-7.776 0-101.872 17.622-199.629 49.985-290.387l-1.878 6.039zM697.458 3.413c-73.956 0-181.191 165.547-181.191 426.667s107.236 425.244 181.191 425.244 181.191-165.547 181.191-426.667-107.52-425.244-181.191-425.244zM699.449 554.382h-3.698c-31.858-3.982-56.889-60.302-56.889-129.707s25.6-125.724 56.889-129.707h3.698c47.787 2.56 85.333 59.733 85.333 129.707s-37.547 127.147-85.333 129.707zM1382.969 754.347l-72.249-39.822c48.146-85.225 76.515-187.14 76.515-295.68s-28.369-210.455-78.096-298.733l1.581 3.053 72.249-40.107c54.594 96.805 86.758 212.54 86.758 335.787s-32.165 238.982-88.557 339.268l1.8-3.482zM1099.662 603.591c26.378-54.093 41.8-117.69 41.8-184.889s-15.422-130.796-42.92-187.445l1.119 2.556 74.24-35.84c31.566 64.564 50.023 140.491 50.023 220.729s-18.457 156.165-51.357 223.767l1.334-3.038z" />
<glyph unicode="&#xe906;" glyph-name="note" horiz-adv-x="795" d="M756.761 684.082h-38.462v-186.068h38.462c21.242 0 38.462 17.22 38.462 38.462v0 108.894c0 0 0 0.001 0 0.001 0 21.292-17.19 38.57-38.449 38.711h-0.014zM756.761 237.518h-38.462v-186.068h38.462c21.242 0 38.462 17.22 38.462 38.462v0 108.894c0 0 0 0.001 0 0.001 0 21.292-17.19 38.57-38.449 38.711h-0.014zM756.761 460.8h-38.462v-186.068h38.462c21.242 0 38.462 17.22 38.462 38.462v0 108.894c0 0 0 0.001 0 0.001 0 21.292-17.19 38.57-38.449 38.711h-0.014zM571.941 756.511h-445.565c-1.152-0.080-2.496-0.125-3.851-0.125-32.829 0-59.442 26.613-59.442 59.442s26.613 59.442 59.442 59.442c1.355 0 2.699-0.045 4.032-0.135l-0.181 0.010h483.028c18.483 0 33.467 14.984 33.467 33.467s-14.984 33.467-33.467 33.467h-483.028c-0.074 0-0.162 0-0.25 0-69.658 0-126.127-56.469-126.127-126.127 0 0 0 0 0 0v0-815.454c0-45.519 36.9-82.42 82.42-82.42v0h489.522c62.761 0 113.639 50.878 113.639 113.639v0 610.654c0.001 0.148 0.001 0.324 0.001 0.5 0 62.761-50.878 113.639-113.639 113.639 0 0-0.001 0-0.001 0v0zM355.902 58.942c-165.339 0-231.024 33.967-231.024 54.197 0 128.125 153.35 89.662 161.093 162.591 0.304 3.71 0.477 8.031 0.477 12.393 0 12.607-1.448 24.875-4.187 36.648l0.213-1.088c-13.629 16.022-24.175 35.131-30.437 56.089l-0.283 1.105c-20.27 8.646-34.734 27.354-37.189 49.677l-0.024 0.274c-0.516 2.402-0.812 5.162-0.812 7.99 0 12.35 5.638 23.384 14.481 30.667l0.068 0.055-4.995 20.98c0 2.997 0 5.994 0 8.991-3.117 13.338-4.904 28.653-4.904 44.385 0 27.764 5.566 54.229 15.642 78.338l-0.498-1.342c7.261 15.742 18.676 28.522 32.85 37.253l0.367 0.21c10.864-4.809 23.484-8.478 36.671-10.395l0.792-0.095c15.735-2.248 18.732 2.248 39.461 4.246 41.709 4.246 65.936 5.495 93.659-29.221 83.419-21.979 55.446-131.871 48.453-155.348 8.008-7.292 13.015-17.761 13.015-29.399 0-2.766-0.283-5.466-0.821-8.072l0.044 0.257c-2.258-22.681-16.809-41.484-36.815-49.804l-0.399-0.147c-6.686-22.207-17.214-41.458-30.935-57.959l0.215 0.266c-2.53-10.61-3.981-22.792-3.981-35.313 0-4.361 0.176-8.681 0.521-12.953l-0.037 0.562c7.493-72.929 160.843-34.466 160.843-162.591 0-19.481-65.936-53.448-231.524-53.448z" />
<glyph unicode="&#xe907;" glyph-name="brain" horiz-adv-x="910" d="M468.713 407.196c4.656 0.438 8.271 4.327 8.271 9.061 0 0.013 0 0.026 0 0.040v-0.002 21.506c-0.413 4.334-3.907 7.733-8.247 7.995l-0.024 0.001-27.571 2.206c-1.87 0.173-3.425 1.36-4.123 3l-0.012 0.032-9.374 22.884c-0.446 0.704-0.711 1.562-0.711 2.481s0.265 1.777 0.722 2.501l-0.011-0.019 18.749 21.781c1.457 1.644 2.346 3.82 2.346 6.204s-0.89 4.559-2.355 6.213l0.009-0.010-17.094 15.44c-1.621 1.513-3.804 2.443-6.204 2.443s-4.583-0.929-6.209-2.448l0.005 0.005-21.781-18.473c-0.683-0.516-1.546-0.827-2.481-0.827s-1.799 0.311-2.492 0.835l0.010-0.008-22.884 9.374c-1.672 0.71-2.86 2.266-3.031 4.116l-0.001 0.020-2.206 27.571c-0.438 4.656-4.327 8.271-9.061 8.271-0.013 0-0.026 0-0.040 0h-22.055c-0.011 0-0.024 0-0.038 0-4.734 0-8.623-3.615-9.058-8.235l-0.003-0.036-2.206-27.571c-0.173-1.87-1.36-3.425-3-4.123l-0.032-0.012-22.884-9.374c-0.683-0.516-1.546-0.827-2.481-0.827s-1.799 0.311-2.492 0.835l0.010-0.008-21.23 18.473c-1.621 1.513-3.804 2.443-6.204 2.443s-4.583-0.929-6.209-2.448l0.005 0.005-15.164-15.44c-1.513-1.621-2.443-3.804-2.443-6.204s0.929-4.583 2.448-6.209l-0.005 0.005 18.749-21.781c0.394-0.718 0.625-1.573 0.625-2.481s-0.231-1.764-0.639-2.509l0.014 0.027-10.477-21.781c-0.71-1.672-2.266-2.86-4.116-3.031l-0.020-0.001-27.571-2.206c-4.632-0.296-8.276-4.125-8.276-8.806 0-0.103 0.002-0.205 0.005-0.307v0.015-21.506c0-0.011 0-0.024 0-0.038 0-4.734 3.615-8.623 8.235-9.058l0.036-0.003 27.571-2.206c1.87-0.173 3.425-1.36 4.123-3l0.012-0.032 9.65-22.609c0.395-0.762 0.626-1.664 0.626-2.619s-0.232-1.857-0.642-2.652l0.015 0.032-18.749-21.781c-1.513-1.621-2.443-3.804-2.443-6.204s0.929-4.583 2.448-6.209l15.159-15.159c1.644-1.457 3.82-2.346 6.204-2.346s4.559 0.89 6.213 2.355l-0.010-0.009 21.781 18.749c0.718 0.394 1.573 0.625 2.481 0.625s1.764-0.231 2.509-0.639l-0.027 0.014 22.884-9.65c1.601-0.666 2.762-2.102 3.029-3.832l0.004-0.028 2.206-27.571c0.299-4.782 4.251-8.547 9.082-8.547 0.006 0 0.012 0 0.018 0h21.505c0.005 0 0.011 0 0.017 0 4.831 0 8.783 3.765 9.081 8.521l0.001 0.026 2.206 27.571c0.27 1.758 1.432 3.194 3 3.848l0.033 0.012 22.884 9.65c0.718 0.394 1.573 0.625 2.481 0.625s1.764-0.231 2.509-0.639l-0.027 0.014 21.781-18.749c1.644-1.457 3.82-2.346 6.204-2.346s4.559 0.89 6.213 2.355l-0.010-0.009 15.44 15.164c1.457 1.644 2.346 3.82 2.346 6.204s-0.89 4.559-2.355 6.213l0.009-0.010-18.749 21.781c-0.441 0.751-0.702 1.655-0.702 2.619s0.261 1.868 0.715 2.644l-0.013-0.025 9.374 22.609c0.71 1.672 2.266 2.86 4.116 3.031l0.020 0.001zM342.988 381.83c-24.964 0.011-45.198 20.251-45.198 45.217 0 24.973 20.244 45.217 45.217 45.217s45.217-20.244 45.217-45.217c0-12.491-5.065-23.799-13.253-31.983v0c-8.141-8.181-19.409-13.244-31.859-13.244-0.334 0-0.668 0.004-1 0.011l0.050-0.001zM648.478 547.258c3.867 0.296 6.893 3.507 6.893 7.424 0 0.007 0 0.014 0 0.022v-0.001 17.37c0 0.002 0 0.003 0 0.005 0 3.862-3.054 7.011-6.879 7.163h-0.014l-23.16 1.93c-1.493 0.185-2.726 1.143-3.298 2.455l-0.010 0.027-7.444 18.197c-0.324 0.599-0.515 1.311-0.515 2.068s0.191 1.469 0.526 2.091l-0.012-0.023 15.164 17.646c1.235 1.286 1.996 3.036 1.996 4.963s-0.761 3.677-1.998 4.965l0.002-0.002-12.131 12.407c-1.311 1.176-3.053 1.896-4.963 1.896s-3.652-0.719-4.97-1.902l0.007 0.006-17.646-15.164c-0.599-0.324-1.311-0.515-2.068-0.515s-1.469 0.191-2.091 0.526l0.023-0.012-18.197 7.996c-1.42 0.469-2.436 1.764-2.481 3.303v0.005l-1.93 22.884c-0.152 3.839-3.301 6.893-7.163 6.893-0.002 0-0.004 0-0.006 0h-17.645c-3.809-0.135-6.882-3.112-7.167-6.868l-0.002-0.025-1.654-22.884c-0.122-1.517-1.105-2.777-2.455-3.3l-0.026-0.009-18.473-7.72c-0.554-0.325-1.219-0.517-1.93-0.517s-1.376 0.192-1.948 0.527l0.018-0.010-17.646 15.164c-1.311 1.176-3.053 1.896-4.963 1.896s-3.652-0.719-4.97-1.902l0.007 0.006-12.407-12.407c-1.235-1.286-1.996-3.036-1.996-4.963s0.761-3.677 1.998-4.965l-0.002 0.002 15.164-17.646c0.377-0.586 0.601-1.301 0.601-2.068s-0.224-1.482-0.61-2.083l0.009 0.015-7.444-18.197c-0.532-1.376-1.792-2.359-3.295-2.481l-0.014-0.001-23.16-1.93c-3.689-0.149-6.623-3.176-6.623-6.888 0-0.099 0.002-0.197 0.006-0.295v0.014-17.37c-0.004-0.088-0.006-0.192-0.006-0.296 0-3.767 2.906-6.856 6.598-7.146l0.025-0.002 23.16-1.654c1.473-0.237 2.684-1.175 3.297-2.455l0.011-0.027 7.444-18.473c0.388-0.535 0.621-1.205 0.621-1.93s-0.233-1.395-0.628-1.94l0.007 0.010-15.164-17.646c-1.235-1.286-1.996-3.036-1.996-4.963s0.761-3.677 1.998-4.965l12.405-12.405c1.286-1.235 3.036-1.996 4.963-1.996s3.677 0.761 4.965 1.998l-0.002-0.002 17.646 14.889c0.535 0.388 1.205 0.621 1.93 0.621s1.395-0.233 1.94-0.628l-0.010 0.007 18.473-7.72c1.306-0.624 2.244-1.836 2.478-3.283l0.003-0.025 1.654-23.16c0.295-3.715 3.382-6.617 7.147-6.617 0.007 0 0.015 0 0.022 0h17.645c0.084-0.004 0.182-0.006 0.281-0.006 3.712 0 6.738 2.934 6.887 6.609v0.013l1.93 23.16c0.122 1.517 1.105 2.777 2.455 3.3l0.026 0.009 18.197 7.72c0.586 0.377 1.301 0.601 2.068 0.601s1.482-0.224 2.083-0.61l-0.015 0.009 17.646-14.889c1.286-1.235 3.036-1.996 4.963-1.996s3.677 0.761 4.965 1.998l-0.002-0.002 12.131 12.407c1.235 1.286 1.996 3.036 1.996 4.963s-0.761 3.677-1.998 4.965l0.002-0.002-15.164 17.646c-0.325 0.554-0.517 1.219-0.517 1.93s0.192 1.376 0.527 1.948l-0.010-0.018 7.444 18.473c0.69 1.252 1.87 2.162 3.276 2.475l0.033 0.006zM547.291 526.855c-0.007 0-0.016 0-0.025 0-20.252 0-36.67 16.418-36.67 36.67s16.418 36.67 36.67 36.67c20.252 0 36.67-16.418 36.67-36.67 0-10.12-4.099-19.282-10.728-25.917v0c-6.553-6.64-15.653-10.753-25.713-10.753-0.072 0-0.143 0-0.215 0.001h0.011zM425.15 623.355c0.673-0.241 1.449-0.38 2.258-0.38 3.056 0 5.648 1.989 6.551 4.743l0.014 0.049 6.066 16.267c0.3 0.776 0.473 1.673 0.473 2.611 0 2.983-1.754 5.556-4.287 6.744l-0.046 0.019-20.954 9.65c-1.007 0.646-1.665 1.76-1.665 3.027 0 0.099 0.004 0.197 0.012 0.294l-0.001-0.013v19.851c-0.302 0.514-0.48 1.132-0.48 1.792s0.178 1.278 0.489 1.809l-0.009-0.017 20.127 11.304c2.256 1.307 3.75 3.711 3.75 6.463 0 1.158-0.264 2.254-0.736 3.232l0.019-0.044-7.169 15.716c-1.207 2.579-3.78 4.333-6.763 4.333-0.938 0-1.836-0.174-2.662-0.49l0.051 0.017-21.506-8.271c-0.612-0.255-1.323-0.402-2.068-0.402s-1.456 0.148-2.104 0.416l0.037-0.013-14.613 13.51c-0.301 0.559-0.478 1.224-0.478 1.93s0.177 1.371 0.489 1.952l-0.011-0.022 6.066 23.16c0.144 0.547 0.226 1.175 0.226 1.822 0 3.203-2.023 5.934-4.862 6.984l-0.052 0.017-16.543 5.239c-0.776 0.3-1.673 0.473-2.611 0.473-2.983 0-5.556-1.754-6.744-4.287l-0.019-0.046-9.374-20.954c-0.634-1.315-1.957-2.207-3.488-2.207-0.034 0-0.068 0-0.101 0.001h0.005l-19.851-0.551c-0.118-0.014-0.255-0.022-0.393-0.022-1.384 0-2.584 0.784-3.181 1.932l-0.009 0.020-11.304 20.127c-1.242 2.239-3.592 3.73-6.29 3.73-1.121 0-2.182-0.257-3.127-0.716l0.043 0.019-15.991-7.169c-2.451-1.252-4.1-3.759-4.1-6.651 0-0.98 0.189-1.916 0.534-2.773l-0.018 0.050 7.996-21.781c0.388-0.535 0.621-1.205 0.621-1.93s-0.233-1.395-0.628-1.94l0.007 0.010-13.51-14.613c-0.535-0.388-1.205-0.621-1.93-0.621s-1.395 0.233-1.94 0.628l0.010-0.007-22.333 6.341c-0.496 0.113-1.065 0.178-1.65 0.178-3.236 0-6.006-1.991-7.154-4.814l-0.019-0.052-6.066-16.267c-0.28-0.751-0.441-1.62-0.441-2.525 0-2.639 1.373-4.957 3.444-6.279l0.030-0.018 20.954-9.65c1.376-0.532 2.359-1.792 2.481-3.295l0.001-0.014v-19.851c-0.068-1.474-0.807-2.763-1.917-3.575l-0.013-0.009-20.403-11.304c-2.239-1.242-3.73-3.592-3.73-6.29 0-1.121 0.257-2.182 0.716-3.127l-0.019 0.043 7.444-15.991c1.224-2.533 3.773-4.249 6.724-4.249 0.85 0 1.666 0.142 2.427 0.405l-0.052-0.016 21.781 8.271c0.535 0.388 1.205 0.621 1.93 0.621s1.395-0.233 1.94-0.628l-0.010 0.007 14.613-13.51c0.388-0.535 0.621-1.205 0.621-1.93s-0.233-1.395-0.628-1.94l0.007 0.010-6.066-22.333c-0.197-0.624-0.31-1.341-0.31-2.085 0-3.081 1.944-5.708 4.672-6.722l0.050-0.016 16.543-6.066c0.749-0.29 1.615-0.458 2.521-0.458 2.928 0 5.447 1.756 6.559 4.272l0.018 0.046 9.65 20.954c0.624 1.306 1.836 2.244 3.283 2.478l0.025 0.003h19.851c0.081 0.007 0.176 0.010 0.271 0.010 1.486 0 2.761-0.904 3.304-2.192l0.009-0.024 11.304-20.127c1.307-2.256 3.711-3.75 6.463-3.75 1.158 0 2.254 0.264 3.232 0.736l-0.044-0.019 15.716 7.444c2.596 1.028 4.399 3.516 4.399 6.426 0 0.965-0.198 1.884-0.556 2.717l0.017-0.045-8.271 21.781c-0.263 0.567-0.416 1.231-0.416 1.93s0.153 1.363 0.428 1.959l-0.012-0.029 13.51 14.613c0.546 0.354 1.213 0.564 1.93 0.564s1.384-0.21 1.944-0.572l-0.014 0.009zM323.136 638.795c-14.054 5.533-23.819 18.988-23.819 34.725 0 4.35 0.746 8.526 2.118 12.407l-0.080-0.261c3.542 9.16 10.273 16.428 18.8 20.58l0.224 0.098c4.074 1.729 8.813 2.734 13.786 2.734s9.712-1.005 14.023-2.823l-0.237 0.089c9.205-3.465 16.499-10.221 20.583-18.801l0.096-0.224c1.729-4.074 2.734-8.813 2.734-13.786s-1.005-9.712-2.823-14.023l0.089 0.237c-3.388-9.174-10.178-16.412-18.8-20.312l-0.224-0.091c-4.115-1.768-8.905-2.796-13.934-2.796-4.501 0-8.809 0.823-12.783 2.327l0.248-0.083zM909.855 252.796l-90.71 303.285v-1.654c-6.152 221.488-187.168 398.692-409.572 398.692-226.283 0-409.721-183.438-409.721-409.721 0-3.878 0.054-7.743 0.161-11.595l-0.012 0.567v-147.782c0-0.136 0-0.296 0-0.457 0-94.47 32.168-181.427 86.148-250.514l-0.677 0.899v-216.435h479.466v86.574c99.134 41.022 176.94 116.86 219.533 211.914l1.038 2.591 107.528 8.823c5.936 0.571 11.047 3.679 14.296 8.212l0.041 0.060c2.075 3.060 3.313 6.834 3.313 10.897 0 2.014-0.304 3.956-0.869 5.785l0.037-0.139zM409.71 225.225c-0.082 0-0.179 0-0.276 0-169.784 0-307.421 137.637-307.421 307.421s137.637 307.421 307.421 307.421c169.784 0 307.421-137.637 307.421-307.421 0-0.097 0-0.194 0-0.29v0.015c-0.313-169.505-137.64-306.832-307.115-307.145h-0.030z" />
<glyph unicode="&#xe908;" glyph-name="calendar1" horiz-adv-x="995" d="M284.411 735.019c32.861 0 59.5 26.639 59.5 59.5v0 88.060c-4.256 29.052-29.005 51.107-58.905 51.107s-54.649-22.055-58.866-50.784l-0.039-0.323v-89.845c0.975-31.683 26.574-57.075 58.249-57.714l0.061-0.001zM714.003 735.019c32.861 0 59.5 26.639 59.5 59.5v0 88.060c0 32.861-26.639 59.5-59.5 59.5s-59.5-26.639-59.5-59.5v0-89.845c0.993-32.084 27.24-57.715 59.474-57.715 0.009 0 0.019 0 0.028 0h-0.001zM856.209 859.375h-36.295v-66.64c-4.317-56.574-51.283-100.842-108.588-100.842s-104.271 44.268-108.565 100.473l-0.023 0.369v66.64h-209.441v-66.64c-8.91-51.93-53.598-90.949-107.398-90.949s-98.488 39.019-107.306 90.302l-0.092 0.646v66.64h-39.27c-76.895 0-139.231-62.336-139.231-139.231v0-662.238c0 0 0-0.001 0-0.001 0-77.014 62.263-139.486 139.198-139.824h717.011c76.967 0.338 139.231 62.81 139.231 139.824 0 0 0 0.001 0 0.001v0 662.238c0 76.895-62.336 139.231-139.231 139.231v0zM885.959 82.301c0-35.819-29.037-64.855-64.855-64.855v0h-646.768c-0.001 0-0.002 0-0.003 0-35.49 0-64.26 28.77-64.26 64.26 0 0.209 0.001 0.418 0.003 0.627v-0.032 518.248h773.504zM367.117 198.921h102.34v-102.34h-102.34v102.34zM367.117 357.192h102.34v-102.34h-102.34v102.34zM208.846 198.921h102.34v-102.34h-102.34v102.34zM208.846 357.192h102.34v-102.34h-102.34v102.34zM684.848 516.058h102.34v-102.34h-102.34v102.34zM525.983 516.058h102.34v-102.34h-102.34v102.34zM525.983 357.192h102.34v-102.34h-102.34v102.34zM684.848 198.921h102.34v-102.34h-102.34v102.34zM684.848 357.192h102.34v-102.34h-102.34v102.34zM525.983 198.921h102.34v-102.34h-102.34v102.34zM367.117 516.058h102.34v-102.34h-102.34v102.34zM208.846 516.058h102.34v-102.34h-102.34v102.34z" />
<glyph unicode="&#xe909;" horiz-adv-x="1472" d="M0-79.558v86.197h46.969c0.749 0.090 1.616 0.141 2.494 0.141 12.246 0 22.172-9.927 22.172-22.172 0-0.096-0.001-0.191-0.002-0.286v0.014c0.031-0.386 0.048-0.835 0.048-1.289 0-7.683-5.042-14.189-11.997-16.389l-0.122-0.033c8.869-2.263 15.322-10.181 15.322-19.606 0-0.719-0.038-1.43-0.111-2.129l0.007 0.087c0.010-0.259 0.016-0.563 0.016-0.868 0-13.405-10.867-24.272-24.272-24.272-0.698 0-1.389 0.029-2.073 0.087l0.089-0.006zM21.516-28.785h19.548c4.609 0.037 8.331 3.782 8.331 8.396 0 0.37-0.024 0.735-0.070 1.092l0.004-0.042c0.019 0.203 0.030 0.438 0.030 0.676 0 4.275-3.466 7.741-7.741 7.741-0.195 0-0.388-0.007-0.58-0.021l0.026 0.002h-19.548zM21.516-62.896h19.417c0.4-0.055 0.861-0.087 1.33-0.087 5.652 0 10.233 4.582 10.233 10.233 0 0.215-0.007 0.429-0.020 0.641l0.001-0.029c0 7.872-6.429 9.315-11.545 9.315h-19.417z" />
<glyph unicode="&#xe90a;" glyph-name="language" horiz-adv-x="878" d="M373.714 334.857c-1.143-4-29.143 9.143-36.571 12-7.429 3.429-41.143 22.286-49.714 28s-41.143 32.571-45.143 34.286v0c-20.571-31.429-46.857-68.571-76.571-103.429-10.286-12-41.143-50.857-60-62.857-2.857-1.714-19.429-3.429-21.714-2.286 9.143 6.857 35.429 39.429 46.857 52.571 14.286 16.571 82.286 111.429 93.714 133.143 12 21.714 48 93.714 49.714 100.571-5.714 0.571-50.857-14.857-62.857-18.857-11.429-3.429-42.857-10.857-45.143-12.571-2.286-2.286-0.571-9.143-1.714-11.429s-11.429-7.429-17.714-8.571c-5.714-1.714-18.857-2.286-26.857 0-7.429 1.714-14.286 9.143-16 12 0 0-2.286 3.429-2.857 13.143 6.857 2.286 18.286 2.857 30.857 6.286s43.429 12.571 60 18.286 48.571 17.714 58.286 20c10.286 1.714 36 18.857 49.714 23.429s23.429 10.286 24 7.429 0-15.429-0.571-18.857c-0.571-2.857-28-56.571-32-65.143-2.286-4.571-18.286-34.857-44-74.857 9.143-4 28.571-12 36.571-16 9.714-4.571 77.714-33.143 81.143-34.286s9.714-27.429 8.571-32zM256.571 612.571c1.714-9.714-1.143-13.714-2.286-16-5.714-10.857-20-18.286-28.571-21.714s-22.857-6.857-34.286-6.857c-5.143 0.571-15.429 2.286-28 14.857-6.857 7.429-12 27.429-9.714 25.143s18.857-4.571 26.286-2.857 25.143 6.857 33.143 9.143c8.571 2.857 25.714 7.429 31.429 8 5.714 0 10.286-2.286 12-9.714zM655.429 538.857l36-129.714-79.429 24zM22.286 81.714l396.571 132.571v589.714l-396.571-133.143v-589.143zM731.429 262.857l58.286-17.714-103.429 375.429-57.143 17.714-123.429-306.286 58.286-17.714 25.714 62.857 120.571-37.143zM444 812.571l327.429-105.143v217.143zM621.714 56.571l90.286-7.429-30.857-91.429-22.857 37.714c-46.286-29.714-103.429-52.571-157.714-61.714-16.571-3.429-35.429-6.857-52-6.857h-48c-60.571 0-170.857 36-218.857 70.857-3.429 2.857-4.571 5.143-4.571 9.143 0 6.286 4.571 10.857 10.286 10.857 5.143 0 32-16.571 39.429-20 51.429-25.714 123.429-49.143 181.143-49.143 71.429 0 120 9.143 185.143 37.143 18.857 8.571 35.429 19.429 53.143 29.143zM877.714 673.143v-616.571c-441.714 140.571-442.286 140.571-442.286 140.571-9.143-4-418.857-142.286-424.571-142.286-4.571 0-8.571 2.857-10.286 7.429 0 0.571-0.571 1.143-0.571 1.714v616c0.571 1.714 1.143 4.571 2.286 5.714 3.429 4 8 5.143 11.429 6.286 1.714 0.571 36.571 12 85.143 28.571v219.429l318.857-113.143c4 1.143 359.429 124 364.571 124 6.286 0 11.429-4.571 11.429-12v-238.857z" />
<glyph unicode="&#xe90b;" glyph-name="calendar" horiz-adv-x="995" d="M284.411 735.019c32.861 0 59.5 26.639 59.5 59.5v0 88.060c-4.256 29.052-29.005 51.107-58.905 51.107s-54.649-22.055-58.866-50.784l-0.039-0.323v-89.845c0.975-31.683 26.574-57.075 58.249-57.714l0.061-0.001zM714.003 735.019c32.861 0 59.5 26.639 59.5 59.5v0 88.060c0 32.861-26.639 59.5-59.5 59.5s-59.5-26.639-59.5-59.5v0-89.845c0.993-32.084 27.24-57.715 59.474-57.715 0.009 0 0.019 0 0.028 0h-0.001zM856.209 859.375h-36.295v-66.64c-4.317-56.574-51.283-100.842-108.588-100.842s-104.271 44.268-108.565 100.473l-0.023 0.369v66.64h-209.441v-66.64c-8.91-51.93-53.598-90.949-107.398-90.949s-98.488 39.019-107.306 90.302l-0.092 0.646v66.64h-39.27c-76.895 0-139.231-62.336-139.231-139.231v0-662.238c0 0 0-0.001 0-0.001 0-77.014 62.263-139.486 139.198-139.824h717.011c76.967 0.338 139.231 62.81 139.231 139.824 0 0 0 0.001 0 0.001v0 662.238c0 76.895-62.336 139.231-139.231 139.231v0zM885.959 82.301c0-35.819-29.037-64.855-64.855-64.855v0h-646.768c-0.001 0-0.002 0-0.003 0-35.49 0-64.26 28.77-64.26 64.26 0 0.209 0.001 0.418 0.003 0.627v-0.032 518.248h773.504zM367.117 198.921h102.34v-102.34h-102.34v102.34zM367.117 357.192h102.34v-102.34h-102.34v102.34zM208.846 198.921h102.34v-102.34h-102.34v102.34zM208.846 357.192h102.34v-102.34h-102.34v102.34zM684.848 516.058h102.34v-102.34h-102.34v102.34zM525.983 516.058h102.34v-102.34h-102.34v102.34zM525.983 357.192h102.34v-102.34h-102.34v102.34zM684.848 198.921h102.34v-102.34h-102.34v102.34zM684.848 357.192h102.34v-102.34h-102.34v102.34zM525.983 198.921h102.34v-102.34h-102.34v102.34zM367.117 516.058h102.34v-102.34h-102.34v102.34zM208.846 516.058h102.34v-102.34h-102.34v102.34z" />
<glyph unicode="&#xe90c;" glyph-name="footer" horiz-adv-x="6217" d="M0 172.002v778.855h144.283v-389.428l102.571 102.571h144.283l-174.713-174.713h28.72l158.643-317.286h-144.283l-115.221 231.81v-230.785zM591.492 172.002c-86.502 0-129.923 47.866-129.923 144.283v28.72q0 143.941 129.923 144.283h129.581v28.72c0 48.208-28.72 72.142-86.502 72.142h-158.643v72.142h259.846c86.502 0 129.581-47.866 129.581-144.283v-346.006zM663.634 417.146c-38.635 0-57.782-23.933-57.782-72.142v-28.72c0-48.208 19.147-72.142 57.782-72.142h57.44v173.003zM1016.82 950.857l91.288-91.288-91.288-91.288-91.288 91.288zM942.285 662.291h144.283v-490.289h-144.283zM1299.232 662.291h273.523v-591.151c0-96.417-43.764-145.993-130.265-145.993h-259.846v73.851h158.643c57.782 0 86.843 23.933 86.843 72.142v100.861h-128.897c-86.502 0-129.923 47.866-129.923 144.283v201.723c-1.026 96.417 42.396 144.283 129.923 144.283zM1371.374 244.143h57.782v346.006h-58.807c-38.635 0-57.782-23.933-57.782-72.142v-201.723c0-49.234 20.856-72.142 57.782-72.142zM1759.776 172.002c-86.502 0-129.923 47.866-129.923 144.283v28.72q0 143.941 129.923 144.283h129.923v28.72c0 48.208-29.062 72.142-86.843 72.142h-158.643v72.142h259.846c86.502 0 129.581-47.866 129.581-144.283v-346.006zM1831.917 417.146c-38.635 0-57.782-23.933-57.782-72.142v-28.72c0-48.208 19.147-72.142 57.782-72.142h57.782v173.003zM2185.103 950.857l91.63-91.288-91.63-91.288-91.288 91.288zM2110.568 662.291h145.993v-490.289h-145.993zM2336.566 532.709v71.8h490.631v-71.8zM2971.48 172.002l-86.502 490.289h143.941l43.422-288.566 43.422 288.566h173.003l50.26-287.199 50.602 287.199h86.502l-102.571-490.289h-142.574l-57.782 360.708-57.44-360.708zM3808.118 172.002h-144.283c-86.502 0-129.923 47.866-129.923 144.283v201.723c0 96.417 43.422 144.283 129.923 144.283h144.283c86.502 0 129.581-47.866 129.581-144.283v-201.723c0-96.417-43.080-144.283-129.581-144.283zM3795.125 316.285v201.723c0 48.208-19.147 72.142-57.44 72.142s-57.782-23.933-57.782-72.142v-201.723c0-48.208 19.147-72.142 57.782-72.142s57.44 22.908 57.44 72.142zM4342.17 662.291v-72.142h-115.221c-57.782 0-86.502-23.933-86.502-72.142v-346.006h-144.283v346.006c0 96.417 43.422 144.283 129.923 144.283zM4399.268 172.002v778.855h144.283v-389.428l102.571 102.571h144.283l-174.713-174.713h28.72l158.643-317.286h-143.941l-115.563 231.81v-230.785zM4954.519 174.395l-91.288 92.656 91.288 91.288 91.63-91.288zM5380.188 172.002h-273.523v778.855h144.283v-288.566h129.923c86.502 0 129.923-47.866 129.923-144.283v-201.723c-0.684-96.417-44.106-144.283-130.607-144.283zM5308.047 590.149h-57.782v-346.006h57.782c38.635 0 57.782 23.933 57.782 72.142v201.723c0 48.208-19.147 72.142-57.782 72.142zM5661.575 950.857l91.288-91.288-91.288-91.288-91.63 91.288zM5587.040 662.291h144.283v-490.289h-144.283zM5812.354 590.149v72.142h403.788l-221.211-418.148h221.211v-72.142h-403.788l220.869 418.148z" />
<glyph unicode="&#xe90d;" glyph-name="edit" horiz-adv-x="982" d="M735.978-17.755h-672.052v895.91h672.052v-159.214c25.618 23.942 42.617 36.152 62.728 51.954v0 171.185h-798.706v-1024h799.903v478.84c-19.242-19.15-40.125-36.69-62.407-52.377l-1.518-1.014zM967.497 762.515c-26.336 26.336-71.826 14.605-119.71-23.942-56.364-43.356-106.43-87.502-153.403-134.728l-0.065-0.066c-62.489-54.348-111.091-107.26-121.625-146.525-0.866-2.958-1.542-6.457-1.896-10.051l-0.019-0.244-44.053-45.49-107.26-75.417c-2.661-1.974-5.003-3.935-7.224-6.024l0.041 0.038c-7.002-7.047-12.119-15.975-14.528-25.959l-0.077-0.377-31.364-132.399 132.399 30.646c10.392 2.38 19.343 7.518 26.331 14.599l0.006 0.006c2.121 2.17 4.085 4.515 5.863 7.002l0.122 0.18 75.417 105.824 45.25 45.25c3.926 0.372 7.508 1.048 10.968 2.019l-0.433-0.104c39.265 10.774 92.177 59.137 146.525 121.625 46.91 46.849 90.815 96.674 131.421 149.181l2.654 3.569c38.786 49.56 50.996 95.050 24.66 121.386zM511.162 227.65c-1.025-1.428-2.126-2.681-3.338-3.818l-0.014-0.013c-3.877-3.942-8.84-6.804-14.404-8.101l-0.201-0.039-82.361-18.914 54.827 54.588c1.843-0.759 3.983-1.199 6.225-1.199 4.688 0 8.926 1.925 11.968 5.027l0.003 0.003c3.166 3.016 5.136 7.263 5.136 11.971s-1.969 8.956-5.129 11.965l-0.007 0.006c-3.044 3.105-7.283 5.030-11.971 5.030s-8.927-1.925-11.968-5.028l-0.003-0.003c-2.98-3.059-4.818-7.243-4.818-11.857 0-2.284 0.45-4.463 1.267-6.453l-0.041 0.113-54.827-54.827 19.154 82.361c1.344 5.723 4.111 10.669 7.91 14.614l-0.009-0.010 4.070 3.352 102.951 71.826 47.884-47.884zM592.086 340.896l-46.208 46.448 32.322 32.322c2.582-3.444 5.251-6.492 8.13-9.327l0.010-0.010 28.73-28.97c2.879-2.947 6.009-5.621 9.366-7.998l0.211-0.142z" />
<glyph unicode="&#xe90e;" horiz-adv-x="1448" d="M1208.379 463.32c0 7.346 0 14.692 0 22.221-0.416 155.98-126.958 282.265-282.995 282.265-48.3 0-93.773-12.1-133.555-33.434l1.514 0.742c-44.061 121.741-158.665 207.167-293.221 207.167-171.812 0-311.093-139.281-311.093-311.093 0-33.252 5.217-65.285 14.877-95.326l-0.612 2.202c-120.088-48.133-203.356-163.553-203.356-298.422 0-177.086 143.557-320.643 320.643-320.643 0.022 0 0.043 0 0.065 0h827.681c7.442-0.82 16.073-1.288 24.813-1.288 0.38 0 0.76 0.001 1.139 0.003h-0.058c1.327-0.023 2.891-0.036 4.459-0.036 151.122 0 273.63 122.508 273.63 273.63 0 140.659-106.132 256.53-242.685 271.899l-1.246 0.114z" />
<glyph unicode="&#xe90f;" horiz-adv-x="1448" d="M839.254 359.010h-89.435c-26.531-0.104-48.011-21.584-48.115-48.105v-254.174c-0.104-26.531-21.584-48.011-48.105-48.115h-116.257c-26.531 0.104-48.011 21.584-48.115 48.105v254.174c-0.104 26.596-21.688 48.115-48.298 48.115-0.065 0-0.129 0-0.194 0h-89.057c-26.445 0-35.076 17.263-18.364 38.382l233.044 308.155c6.284 9.57 16.968 15.803 29.108 15.803s22.823-6.232 29.027-15.671l0.081-0.131 233.779-308.155c15.977-21.119 7.346-38.382-19.099-38.382z" />
<glyph unicode="&#xe911;" horiz-adv-x="859" d="M568.32 942.080h-315.043l-15.905-16.014-237.372-237.263v-479.319c0.309-81.332 66.251-147.159 147.597-147.282h420.723c81.472 0.124 147.485 66.136 147.608 147.597v584.672c-0.124 81.472-66.136 147.485-147.597 147.608h-0.012zM661.243 209.811c0-51.32-41.603-92.923-92.923-92.923v0h-420.711c-0.065 0-0.141 0-0.218 0-51.32 0-92.923 41.603-92.923 92.923 0 0 0 0 0 0v0 456.334h143.796c42.776 0 77.454 34.677 77.454 77.454v0 144.014h292.603c51.32 0 92.923-41.603 92.923-92.923v0z" />
<glyph unicode="&#xe912;" horiz-adv-x="859" d="M394.785 781.944h153.6v-153.6h-153.6v153.6z" />
<glyph unicode="&#xe913;" horiz-adv-x="859" d="M167.544 542.393h380.841v-43.030h-380.841v43.030z" />
<glyph unicode="&#xe914;" horiz-adv-x="859" d="M167.544 419.513h380.841v-43.030h-380.841v43.030z" />
<glyph unicode="&#xe915;" horiz-adv-x="859" d="M167.544 296.633h380.841v-43.030h-380.841v43.030z" />
<glyph unicode="&#xe916;" horiz-adv-x="859" d="M506.444-81.92c-34.775 0-62.965 28.19-62.965 62.965v0 103.38h-51.963c-34.728 0.062-62.856 28.229-62.856 62.965 0 14.208 4.706 27.316 12.644 37.853l-0.116-0.16 201.968 269.399c11.669 15.319 29.904 25.119 50.43 25.164h0.007c20.501-0.046 38.703-9.848 50.215-25.008l0.114-0.156 201.968-269.399c7.889-10.391 12.638-23.542 12.638-37.802 0-34.715-28.142-62.856-62.856-62.856-0.154 0-0.307 0.001-0.461 0.002h-51.613v-103.38c0-0.032 0-0.071 0-0.109 0-34.715-28.142-62.856-62.856-62.856 0 0 0 0 0 0v0z" />
<glyph unicode="&#xe917;" horiz-adv-x="859" d="M680.742 147.391h114.819l-201.968 269.29-202.077-269.29h114.928v-166.346h174.298v166.346z" />
<glyph unicode="&#xe918;" horiz-adv-x="859" d="M680.742 147.391h114.819l-201.968 269.29-202.077-269.29h114.928v-166.346h174.298v166.346z" />
<glyph unicode="&#xe919;" horiz-adv-x="1472" d="M126.737-81.92c-1.14-0.101-2.465-0.159-3.805-0.159-25.216 0-45.657 20.441-45.657 45.657s20.441 45.657 45.657 45.657c25.216 0 45.657-20.441 45.657-45.657 0-0.036 0-0.073 0-0.109v0.006c0.081-0.982 0.128-2.126 0.128-3.28 0-23.212-18.779-42.038-41.973-42.114h-0.007zM126.737-9.105c-16.925 0-19.417-20.204-19.417-27.42s2.624-27.42 19.417-27.42 19.548 20.598 19.548 27.42-1.968 27.42-19.548 27.42z" />
<glyph unicode="&#xe91a;" horiz-adv-x="1472" d="M255.311-67.357c0-3.674 0-8.921 2.886-10.496v-1.706h-22.041c-1.274 2.534-2.019 5.521-2.019 8.683 0 0.499 0.019 0.994 0.055 1.484l-0.004-0.065v8.659c0.003 0.109 0.005 0.237 0.005 0.366 0 3.486-1.295 6.669-3.429 9.095l0.013-0.015c-1.181 1.181-2.886 3.018-9.053 3.018h-19.286v-31.225h-21.516v86.197h46.444c20.467 0 28.339-11.152 28.339-23.616 0-0.015 0-0.032 0-0.050 0-5.792-1.975-11.123-5.289-15.355l0.041 0.055c-2.797-3.255-6.511-5.649-10.739-6.788l-0.151-0.035c3.245-0.007 6.248-1.038 8.705-2.786l-0.046 0.031c4.34-3.442 7.099-8.715 7.099-14.632 0-0.252-0.005-0.504-0.015-0.754l0.001 0.036zM202.832-31.146h21.516c5.262 0.129 9.478 4.425 9.478 9.706 0 0.278-0.012 0.553-0.035 0.825l0.002-0.036c0.015 0.196 0.023 0.426 0.023 0.657 0 5.179-4.168 9.384-9.332 9.446h-22.047z" />
<glyph unicode="&#xe91b;" horiz-adv-x="1472" d="M268.431 6.639h33.324c30.307 0 41.459-18.63 41.459-43.951 0-35.817-22.041-42.246-41.459-42.246h-33.324zM289.947-62.503h13.12c17.187 0 17.187 23.353 17.187 26.24 0 13.12-4.986 25.452-17.187 25.452h-13.12z" />
<glyph unicode="&#xe91c;" horiz-adv-x="1472" d="M426-62.503v-17.056h-69.666v86.197h68.354v-17.187h-46.969v-16.793h40.803v-16.531h-40.803v-18.63z" />
<glyph unicode="&#xe91d;" horiz-adv-x="1472" d="M511.672-67.357c0-3.674 0-8.921 3.018-10.496v-1.706h-22.435c-1.274 2.534-2.019 5.521-2.019 8.683 0 0.499 0.019 0.994 0.055 1.484l-0.004-0.065v8.659c0.005 0.14 0.008 0.305 0.008 0.471 0 3.475-1.351 6.635-3.557 8.983l0.006-0.007c-1.904 1.926-4.546 3.119-7.466 3.119-0.513 0-1.018-0.037-1.512-0.108l0.056 0.007h-18.63v-31.225h-21.91v86.197h46.575c20.467 0 28.208-11.152 28.208-23.616 0.001-0.078 0.001-0.17 0.001-0.263 0-5.703-1.925-10.956-5.161-15.145l0.043 0.057c-2.797-3.255-6.511-5.649-10.739-6.788l-0.151-0.035c3.245-0.007 6.248-1.038 8.705-2.786l-0.046 0.031c4.267-3.394 6.978-8.585 6.978-14.41 0-0.331-0.009-0.66-0.026-0.986l0.002 0.046zM459.193-31.146h21.385c5.262 0.129 9.478 4.425 9.478 9.706 0 0.278-0.012 0.553-0.035 0.825l0.002-0.036c0.021 0.236 0.033 0.51 0.033 0.788 0 5.11-4.115 9.259-9.212 9.314h-21.653z" />
<glyph unicode="&#xe91e;" horiz-adv-x="1472" d="M524.792-79.558v86.197h21.385v-69.141h41.59v-17.056z" />
<glyph unicode="&#xe91f;" horiz-adv-x="1472" d="M669.11-62.503v-17.056h-70.322v86.197h68.354v-17.187h-46.838v-16.793h40.671v-16.531h-40.671v-18.63z" />
<glyph unicode="&#xe920;" horiz-adv-x="1472" d="M699.941-53.188c0.918-7.872 5.117-10.758 13.12-10.758s12.333 2.493 12.333 7.872-2.099 7.216-16.269 11.152c-19.155 5.248-29.913 10.102-29.913 27.945 0 13.12 11.808 26.24 33.062 26.24 0.204 0.004 0.445 0.006 0.686 0.006 7.59 0 14.689-2.099 20.749-5.749l-0.181 0.101c6.875-4.838 11.469-12.52 12.065-21.298l0.005-0.087h-21.385c-0.656 7.085-5.379 8.921-11.545 8.921-3.805 0-10.496-0.787-10.496-6.822 0-3.674 1.443-5.379 16.531-10.102 17.843-5.642 29.651-9.315 29.651-28.076 0-11.939-8.921-27.814-35.292-27.814-1.167-0.155-2.516-0.243-3.886-0.243-16.453 0-29.934 12.726-31.138 28.871l-0.006 0.104z" />
<glyph unicode="&#xe921;" horiz-adv-x="1472" d="M781.415-53.188c0.918-7.872 5.117-10.758 13.12-10.758s12.333 2.493 12.333 7.872-2.099 7.216-16.269 11.152c-19.155 5.248-29.913 10.102-29.913 27.945 0 13.12 11.808 26.24 33.062 26.24 0.204 0.004 0.445 0.006 0.686 0.006 7.59 0 14.689-2.099 20.749-5.749l-0.181 0.101c6.875-4.838 11.469-12.52 12.065-21.298l0.005-0.087h-21.385c0 7.085-5.379 8.921-11.545 8.921-3.805 0-10.496-0.787-10.496-6.822 0-3.674 1.312-5.379 16.531-10.102 17.843-5.642 29.651-9.315 29.651-28.076 0-11.939-8.921-27.814-35.292-27.814-1.167-0.155-2.516-0.243-3.886-0.243-16.453 0-29.934 12.726-31.138 28.871l-0.006 0.104z" />
<glyph unicode="&#xe922;" horiz-adv-x="1472" d="M924.814-22.225l-9.184-57.334h-23.484l-19.155 86.197h21.385l10.889-61.663 9.709 62.057h20.992l8.659-62.057 10.233 62.057h21.385l-18.499-86.591h-23.878z" />
<glyph unicode="&#xe923;" horiz-adv-x="1472" d="M1025.181-81.92c-1.14-0.101-2.465-0.159-3.805-0.159-25.216 0-45.657 20.441-45.657 45.657s20.441 45.657 45.657 45.657c25.216 0 45.657-20.441 45.657-45.657 0-0.036 0-0.073 0-0.109v0.006c0.081-0.982 0.128-2.126 0.128-3.28 0-23.212-18.779-42.038-41.973-42.114h-0.007zM1025.181-9.105c-16.925 0-19.417-20.204-19.417-27.42s2.493-27.42 19.417-27.42 19.548 20.598 19.548 27.42-2.362 27.42-19.548 27.42z" />
<glyph unicode="&#xe924;" horiz-adv-x="1472" d="M1153.624-67.357c0-3.674 0-8.921 3.018-10.496v-1.706h-22.435c-1.346 2.593-2.135 5.662-2.135 8.915 0 0.418 0.013 0.832 0.039 1.244l-0.003-0.056v8.659c0.009 0.181 0.014 0.393 0.014 0.606 0 3.41-1.301 6.517-3.434 8.85l0.009-0.010c-1.904 1.926-4.546 3.119-7.466 3.119-0.513 0-1.018-0.037-1.512-0.108l0.056 0.007h-18.893v-31.225h-21.648v86.197h46.444c20.598 0 28.339-11.152 28.339-23.616 0.001-0.078 0.001-0.17 0.001-0.263 0-5.703-1.925-10.956-5.161-15.145l0.043 0.057c-2.817-3.229-6.522-5.617-10.735-6.786l-0.155-0.037c3.245-0.007 6.248-1.038 8.705-2.786l-0.046 0.031c4.267-3.394 6.978-8.585 6.978-14.41 0-0.331-0.009-0.66-0.026-0.986l0.002 0.046zM1101.144-31.146h21.385c5.262 0.129 9.478 4.425 9.478 9.706 0 0.278-0.012 0.553-0.035 0.825l0.002-0.036c0.021 0.236 0.033 0.51 0.033 0.788 0 5.11-4.115 9.259-9.212 9.314h-21.915z" />
<glyph unicode="&#xe925;" horiz-adv-x="1472" d="M1187.866-53.45v-26.24h-21.385v86.328h21.385v-35.423l33.98 34.767h26.24l-32.406-32.143 35.030-54.054h-26.24l-24.403 38.31z" />
<glyph unicode="&#xe926;" horiz-adv-x="1472" d="M1283.772-79.558h-22.172v86.197h22.172z" />
<glyph unicode="&#xe927;" horiz-adv-x="1472" d="M1357.243-79.558l-36.998 54.316 0.787-54.316h-21.516v86.197h20.729l37.785-54.447-0.787 54.447h21.516v-86.197z" />
<glyph unicode="&#xe928;" horiz-adv-x="1472" d="M1449.213-21.963c-1.046 7.476-7.399 13.166-15.080 13.166-0.418 0-0.833-0.017-1.243-0.050l0.054 0.004c-16.4 0-19.942-15.088-19.942-28.601 0-10.233 3.28-26.24 19.417-26.24 4.457 0.010 8.592 1.382 12.012 3.721l-0.073-0.047c3.896 2.576 6.536 6.78 6.95 11.619l0.004 0.057h-15.481v15.088h36.342v-46.313h-14.694l-1.181 8.79c-5.791-6.884-14.41-11.229-24.044-11.229-0.773 0-1.539 0.028-2.298 0.083l0.102-0.006c-24.796 0-39.359 18.368-39.359 44.607 0 16.531 7.216 46.313 42.246 46.313 0.979 0.096 2.116 0.151 3.266 0.151 18.019 0 32.884-13.504 35.027-30.943l0.017-0.171z" />
<glyph unicode="&#xe929;" horiz-adv-x="1472" d="M735.889 600.178l373.914-217.789v125.163l-373.914 217.789v-125.163z" />
<glyph unicode="&#xe92a;" horiz-adv-x="1472" d="M735.889 816.917l373.914-217.789v125.163l-373.914 217.789v-125.163z" />
<glyph unicode="&#xe92b;" horiz-adv-x="1472" d="M1109.803 600.178l-373.914-217.789v125.163l373.914 217.789v-125.163z" />
<glyph unicode="&#xe92c;" horiz-adv-x="1472" d="M1109.803 382.39l-373.914-217.92v125.163l373.914 217.92v-125.163z" />
<glyph unicode="&#xe92d;" horiz-adv-x="1472" d="M361.975 382.39l373.914-217.92v125.163l-373.914 217.92v-125.163z" />
<glyph unicode="&#xe92e;" horiz-adv-x="1472" d="M361.975 600.178l373.914-217.789v125.163l-373.914 217.789v-125.163z" />
<glyph unicode="&#xe92f;" horiz-adv-x="1472" d="M735.889 816.917l-373.914-217.789v125.163l373.914 217.789v-125.163z" />
<glyph unicode="&#xe930;" horiz-adv-x="1472" d="M735.889 600.178l-373.914-217.789v125.163l373.914 217.789v-125.163z" />
<glyph unicode="&#xe931;" horiz-adv-x="985" d="M492.391 491.845l492.391-286.796v164.821l-492.391 286.796v-164.821z" />
<glyph unicode="&#xe932;" horiz-adv-x="985" d="M492.391 777.259l492.391-286.796v164.821l-492.391 286.796v-164.821z" />
<glyph unicode="&#xe933;" horiz-adv-x="985" d="M984.782 491.845l-492.391-286.796v164.821l492.391 286.796v-164.821z" />
<glyph unicode="&#xe934;" horiz-adv-x="985" d="M984.782 205.049l-492.391-286.969v164.821l492.391 286.969v-164.821z" />
<glyph unicode="&#xe935;" horiz-adv-x="985" d="M0 205.049l492.391-286.969v164.821l-492.391 286.969v-164.821z" />
<glyph unicode="&#xe936;" horiz-adv-x="985" d="M0 491.845l492.391-286.796v164.821l-492.391 286.796v-164.821z" />
<glyph unicode="&#xe937;" horiz-adv-x="985" d="M492.391 777.259l-492.391-286.796v164.821l492.391 286.796v-164.821z" />
<glyph unicode="&#xe938;" horiz-adv-x="985" d="M492.391 491.845l-492.391-286.796v164.821l492.391 286.796v-164.821z" />
</font>
</defs>
</svg>
