<svg version="1.1" xmlns="http://www.w3.org/2000/svg" xmlns:xlink="http://www.w3.org/1999/xlink" width="32" height="32" viewBox="0 0 32 32" data-tags="document-cancel"><g fill="#486526" transform="scale(0.03125 0.03125)"><path d="M688 838.627l-67.882 67.882-22.627-22.627 67.882-67.882-67.882-67.882 22.627-22.627 67.882 67.882 67.882-67.882 22.627 22.627-67.882 67.882 67.882 67.882-22.627 22.627-67.882-67.882zM552.229 928v0 0c32.281 39.088 81.117 64 135.771 64 97.202 0 176-78.798 176-176 0-68.395-39.013-127.678-96-156.809v-371.191l-192-224h-351.912c-35.395 0-64.088 28.747-64.088 64.235v735.531c0 35.476 28.51 64.235 63.918 64.235h328.312zM531.191 896h-307.192c-17.448 0-31.999-14.262-31.999-31.855v-736.291c0-17.286 14.264-31.855 31.858-31.855h320.142v159.811c0 35.82 28.624 64.189 63.933 64.189h128.067v326.625c-15.259-4.316-31.36-6.625-48-6.625-97.202 0-176 78.798-176 176 0 28.807 6.921 55.998 19.191 80v0 0zM576 112l150.398 176h-118.503c-17.475 0-31.896-14.453-31.896-32.281v-143.719zM688 960v0c-79.529 0-144-64.471-144-144s64.471-144 144-144c79.529 0 144 64.471 144 144s-64.471 144-144 144z" /></g></svg>
