<!-- Generated by IcoMoon.io -->
<svg version="1.1" xmlns="http://www.w3.org/2000/svg" width="512" height="512" viewBox="0 0 512 512">
<title>IcoMoon</title>
<g id="icomoon-ignore">
</g>
<path fill="#217346" d="M502.464 66.176h-171.52v31.744h50.56v50.218h-50.56v16h50.56v50.282h-50.56v16.448h50.56v47.552h-50.56v19.050h50.56v47.659h-50.56v19.050h50.56v47.936h-50.56v34.966h171.52c2.709-0.81 4.971-4.010 6.784-9.558 1.813-5.589 2.752-10.134 2.752-13.568v-351.978c0-2.731-0.938-4.374-2.752-4.95-1.813-0.555-4.075-0.853-6.784-0.853zM480.214 412.075h-82.282v-47.894h82.283v47.936zM480.214 345.13h-82.282v-47.68h82.283zM480.214 278.4h-82.282v-47.339h82.283v47.382zM480.214 214.4h-82.282v-50.219h82.283v50.24zM480.214 147.862h-82.282v-49.92h82.283v50.24zM0 58.261v396.822l302.080 52.245v-502.656l-302.080 53.76zM179.050 358.442c-1.152-3.115-6.571-16.341-16.171-39.744-9.578-23.382-15.36-36.992-17.046-40.875h-0.534l-32.406 77.12-43.306-2.923 51.371-96-47.040-96 44.16-2.326 29.184 75.114h0.576l32.96-78.528 45.632-2.88-54.336 103.894 56 105.984-49.046-2.88z"></path>
</svg>
