<!-- Generated by IcoMoon.io -->
<svg version="1.1" xmlns="http://www.w3.org/2000/svg" width="512" height="512" viewBox="0 0 512 512">
<title>IcoMoon</title>
<g id="icomoon-ignore">
</g>
<path fill="#2b579a" d="M511.978 79.638v353.002c0 3.008-1.067 5.44-3.178 7.382-2.154 2.005-4.714 2.944-7.68 2.944h-182.592v-48.96h148.95v-22.293h-149.077v-27.286h148.95v-22.272h-148.842v-27.52h148.906v-22.016h-148.906v-27.584h148.906v-22.272h-148.906v-27.286h148.906v-22.25h-148.906v-27.84h148.906v-21.206h-148.906v-55.317h182.656c3.178 0 5.76 1.024 7.637 3.178 2.24 2.112 3.2 4.694 3.178 7.594zM291.2 13.675v484.736l-291.2-50.389v-382.592l291.2-51.84zM247.254 156.779l-36.458 2.24-23.381 144.746h-0.534c-1.152-6.848-5.44-30.827-13.12-71.829l-13.632-69.611-34.219 1.707-13.696 67.904c-8 39.552-12.459 62.57-13.632 69.034h-0.32l-20.8-133.333-31.36 1.664 33.6 168.171 34.858 2.24 13.12-65.451c7.68-38.4 12.16-60.714 13.12-66.816h0.96c1.302 6.506 5.462 29.312 13.12 68.48l13.12 67.37 37.76 2.24 42.24-188.8z"></path>
</svg>
