<svg xmlns="http://www.w3.org/2000/svg" viewBox="0 0 16.73 17.21"><defs><style>.cls-1{fill:#919191;}</style></defs><g id="Layer_2" data-name="Layer 2"><g id="レイヤー_1" data-name="レイヤー 1"><path class="cls-1" d="M4.78,3.48a1,1,0,0,0,1-1V1A1,1,0,0,0,3.8,1V2.51A1,1,0,0,0,4.78,3.48Z"/><path class="cls-1" d="M12,3.48a1,1,0,0,0,1-1V1A1,1,0,0,0,11,1V2.51A1,1,0,0,0,12,3.48Z"/><path class="cls-1" d="M14.39,1.39h-.61V2.51a1.83,1.83,0,0,1-3.65,0V1.39H6.61V2.51A1.83,1.83,0,0,1,3,2.51V1.39H2.34A2.34,2.34,0,0,0,0,3.73V14.86a2.35,2.35,0,0,0,2.34,2.35H14.39a2.35,2.35,0,0,0,2.34-2.35V3.73A2.34,2.34,0,0,0,14.39,1.39Zm.5,13.06a1.09,1.09,0,0,1-1.09,1.09H2.93a1.08,1.08,0,0,1-1.08-1.09V5.74h13Z"/><rect class="cls-1" x="6.17" y="12.49" width="1.72" height="1.72"/><rect class="cls-1" x="6.17" y="9.83" width="1.72" height="1.72"/><rect class="cls-1" x="3.51" y="12.49" width="1.72" height="1.72"/><rect class="cls-1" x="3.51" y="9.83" width="1.72" height="1.72"/><rect class="cls-1" x="11.51" y="7.16" width="1.72" height="1.72"/><rect class="cls-1" x="8.84" y="7.16" width="1.72" height="1.72"/><rect class="cls-1" x="8.84" y="9.83" width="1.72" height="1.72"/><rect class="cls-1" x="11.51" y="12.49" width="1.72" height="1.72"/><rect class="cls-1" x="11.51" y="9.83" width="1.72" height="1.72"/><rect class="cls-1" x="8.84" y="12.49" width="1.72" height="1.72"/><rect class="cls-1" x="6.17" y="7.16" width="1.72" height="1.72"/><rect class="cls-1" x="3.51" y="7.16" width="1.72" height="1.72"/></g></g></svg>